<?xml version="1.0" encoding="utf-8" ?><svg xmlns="http://www.w3.org/2000/svg" xmlns:xlink="http://www.w3.org/1999/xlink" width="560" height="261" viewBox="0 0 560 261"><path d="M290.486 104.407C292.765 103.139 299.433 95.0387 301.576 92.6703C313.819 79.1447 325.656 65.0628 338.783 52.3672C364.014 28.0722 395.432 11.3484 430.826 9.59243C489.326 6.6902 540.533 46.2066 552.62 103.458C568.673 179.499 510.376 250.515 433.739 254.025C428.181 254.903 417.977 253.976 412.251 253.307C357.15 246.867 318.037 201.098 277.741 167.56C275.171 165.421 271.083 160.862 268.446 159.341C268.33 159.993 260.961 167.795 259.977 168.868L244.999 185.391C237.174 194.019 229.07 203.301 220.655 211.288C196.325 234.381 166.913 251.058 132.959 253.738C101.036 256.296 70.7967 247.041 46.2899 226.351C-5.62106 182.525 -9.33305 102.968 35.5787 52.7548C59.299 26.2344 89.8998 12.3826 125.069 9.72577C185.013 4.43817 231.59 51.7202 272.809 88.2578L285.031 99.0958C286.01 99.9658 290.263 103.433 290.486 104.407Z"/><path fill="#FEFEFE" d="M417.851 25.0069C485.172 20.9132 538.554 81.668 516.307 147.482C503.794 184.5 466.668 209.905 427.26 204.185C421.555 203.357 415.357 201.385 409.924 199.516C409.418 199.05 406.266 197.691 405.495 197.341C384.335 187.734 366.43 172.542 349.222 157.234L319.516 130.526C316.485 127.806 302.973 116.346 301.475 113.569C301.445 112.401 325.07 86.8728 328.029 83.4668C353.896 53.6957 376.705 28.7412 417.851 25.0069Z"/><path fill="#FEFEFE" d="M114.322 59.1902C157.424 54.0923 200.378 97.3942 229.639 123.81L247.164 139.471C250.418 142.376 255.776 147.04 258.527 150.176C254.72 154.212 250.948 158.663 247.218 162.817L225.511 186.855C209.335 204.768 196.283 219.515 174.01 230.381C141.952 246.711 98.8205 239.091 71.8449 216.552C53.0974 201.282 41.2934 179.5 38.8031 155.387C33.9524 108.42 65.8376 63.6132 114.322 59.1902Z"/></svg>