<svg xmlns="http://www.w3.org/2000/svg" version="1.1" xmlns:xlink="http://www.w3.org/1999/xlink" width="330" height="754" viewBox="0 0 330 754" fill="none">
	<g>
		<path fill="#F5F5F5" d="M 324.728 253.266 C 317.908 245.466 307.448 227.276 305.698 217.776 C 303.958 208.276 292.088 185.516 283.448 185.166 C 274.808 184.816 261.848 196.076 260.138 187.916 C 258.428 179.756 258.008 155.276 250.298 154.656 C 242.588 154.046 230.168 146.156 227.138 134.156 C 224.098 122.156 232.168 95.176 234.358 92.546 C 236.548 89.916 240.678 84.796 242.698 73.306 C 244.708 61.826 241.228 56.276 236.478 53.516 C 231.728 50.756 231.878 41.656 232.138 16.816 C 232.348 -4.384 215.368 1.486 206.838 5.846 C 205.368 6.606 204.148 7.316 203.308 7.826 C 197.618 11.326 186.288 17.636 175.288 22.736 C 164.288 27.826 160.068 34.816 157.798 41.036 C 155.528 47.266 163.568 76.196 162.628 86.636 C 161.698 97.076 156.368 105.156 151.448 109.406 C 146.518 113.646 144.448 120.516 147.238 128.306 C 150.028 136.096 144.478 148.936 139.088 150.566 C 133.698 152.186 118.568 161.306 118.568 161.306 C 118.568 161.306 114.588 152.376 105.608 150.566 C 96.628 148.756 76.808 166.566 76.808 166.566 C 69.368 166.816 44.888 168.956 35.548 174.226 C 26.218 179.496 21.128 186.716 19.778 199.256 C 18.428 211.796 33.608 225.116 38.888 226.796 C 44.168 228.476 49.418 233.406 51.798 239.876 C 54.178 246.346 57.848 259.856 57.848 275.866 C 57.848 277.486 57.768 279.086 57.638 280.646 C 56.438 294.496 50.538 305.516 50.538 305.516 C 50.538 305.516 36.248 310.316 30.968 315.116 C 25.688 319.916 18.188 339.736 18.188 339.736 C 18.188 339.736 3.608 356.876 1.688 371.756 C -0.232 386.636 9.888 418.796 9.888 418.796 C 9.888 418.796 6.968 452.826 9.888 462.206 C 12.818 471.596 23.528 491.996 48.728 487.016 C 73.928 482.036 65.338 456.926 70.328 448.076 C 75.318 439.226 86.168 410.636 96.968 415.806 C 107.768 420.986 127.898 470.246 123.748 496.776 C 119.598 523.306 123.748 541.316 123.748 541.316 C 126.188 553.046 119.648 594.236 112.198 622.316 C 104.738 650.396 99.828 668.776 90.128 687.836 C 80.428 706.896 69.968 740.396 74.648 751.196 C 78.378 759.806 77.868 755.426 81.488 736.436 C 85.108 717.446 102.008 705.836 108.488 698.896 C 114.968 691.956 127.208 663.356 135.788 653.276 C 144.368 643.196 166.698 625.436 173.288 607.196 C 179.878 588.956 200.648 560.396 205.688 553.196 C 210.728 545.996 230.168 533.036 236.478 506.396 C 242.788 479.756 221.528 452.396 215.048 437.276 C 208.568 422.156 201.088 384.476 201.088 384.476 C 201.088 384.476 211.978 378.956 220.738 370.926 C 229.498 362.886 234.988 351.426 243.628 351.946 C 252.268 352.466 244.928 371.266 253.508 372.226 C 262.088 373.186 271.928 365.996 269.518 356.396 C 267.118 346.796 271.448 341.036 279.108 332.876 C 286.778 324.716 280.088 312.716 286.088 305.856 C 292.078 298.996 303.128 288.716 320.588 282.006 C 338.038 275.306 331.538 261.076 324.728 253.266 Z M 51.798 206.876 C 49.858 210.146 43.668 212.956 39.218 211.416 C 34.768 209.886 26.888 199.436 33.608 186.476 C 40.328 173.516 60.768 174.476 66.538 174.216 C 72.278 173.956 61.828 182.696 59.048 188.156 C 56.268 193.616 54.008 203.156 51.798 206.876 Z M 70.328 401.996 C 62.168 411.116 46.658 411.566 36.218 418.796 C 24.608 426.836 20.888 438.096 22.198 449.656 C 23.518 461.216 35.808 473.366 44.318 473.036 C 52.838 472.696 59.678 462.206 56.408 471.116 C 53.138 480.026 39.128 480.716 29.438 474.196 C 19.748 467.676 14.008 456.396 15.128 434.636 C 16.448 408.896 30.858 396.186 43.778 393.156 C 56.708 390.126 78.488 392.876 70.328 401.996 Z M 210.798 368.396 C 200.818 374.376 191.078 377.416 193.308 383.926 C 195.528 390.426 196.088 415.916 196.088 429.836 C 196.088 443.756 220.578 464.746 225.768 473.536 C 230.968 482.326 231.118 490.146 222.818 506.496 C 221.828 508.716 220.748 510.726 219.608 512.396 C 206.348 535.266 191.028 541.426 188.038 545.346 C 185.048 549.256 174.908 564.436 175.388 577.386 C 175.748 587.106 164.848 600.446 160.268 607.266 C 155.778 613.946 139.348 629.566 147.308 615.906 C 154.348 603.826 163.678 592.866 164.848 577.746 C 166.028 562.626 178.888 535.506 191.708 524.706 C 204.528 513.906 220.508 478.526 210.088 471.746 C 200.358 465.416 192.088 456.346 189.848 451.376 C 187.138 445.376 186.008 424.076 184.088 415.806 C 182.168 407.546 168.728 393.836 165.108 384.476 C 161.478 375.116 201.428 368.826 211.028 360.666 C 220.628 352.506 228.578 341.126 233.348 339.426 C 238.198 337.696 220.778 362.416 210.798 368.396 Z M 290.978 289.916 C 276.908 296.886 264.248 299.756 269.518 291.876 C 274.798 283.986 287.288 259.436 287.288 249.356 C 287.288 239.276 281.078 204.506 271.928 205.676 C 253.688 208.006 245.528 189.836 243.628 181.196 C 243.088 178.746 242.308 176.616 241.338 174.746 C 240.368 172.876 239.208 171.266 237.898 169.836 C 228.408 162.016 222.428 164.226 213.198 159.426 C 203.958 154.626 208.988 135.426 212.348 123.426 C 212.948 121.286 213.198 118.836 213.198 116.266 C 213.198 104.446 207.978 89.966 207.978 89.966 C 205.018 83.376 203.818 73.236 200.888 68.646 C 199.068 65.806 194.828 65.596 190.778 67.386 C 186.258 69.376 181.968 73.836 181.538 79.916 C 180.728 91.436 180.248 119.756 177.848 128.396 C 175.448 137.036 165.978 139.526 162.628 142.316 C 158.888 145.436 156.288 151.206 154.358 150.976 C 152.428 150.736 155.188 141.466 157.288 138.736 C 160.068 135.116 163.058 137.576 166.608 132.986 C 170.168 128.396 169.728 126.606 169.308 118.976 C 168.718 108.256 164.858 80.566 171.828 72.796 C 178.808 65.036 174.658 54.956 173.848 50.156 C 173.348 47.176 183.548 39.176 193.298 33.906 C 193.308 33.896 193.318 33.896 193.328 33.896 C 199.258 30.686 205.008 28.496 208.088 29.036 C 216.248 30.476 218.998 38.236 218.158 48.746 C 217.318 59.246 215.308 68.736 223.638 74.386 C 224.898 75.246 225.618 76.406 225.928 77.746 C 225.928 77.756 225.938 77.756 225.938 77.766 C 228.008 82.996 225.788 92.706 221.468 103.746 C 217.148 114.786 218.088 133.796 219.578 141.336 C 220.348 145.216 221.528 149.646 227.318 153.936 C 229.928 155.866 233.178 157.596 236.088 158.966 C 238.998 160.346 241.588 161.346 242.878 161.836 C 245.128 162.686 247.168 163.546 248.568 164.446 C 253.758 167.766 248.788 186.256 256.768 193.026 C 264.738 199.796 270.008 197.516 279.108 195.656 C 288.218 193.806 290.998 204.536 292.618 211.846 C 294.248 219.156 292.568 231.116 296.408 237.816 C 300.248 244.526 316.088 252.516 316.908 258.476 C 317.728 264.436 305.048 282.956 290.978 289.916 Z"></path>
		<path fill="#D2D9DB" d="M 162.628 142.316 C 158.888 145.436 156.288 151.206 154.358 150.976 C 152.428 150.736 155.188 141.466 157.288 138.736 C 160.068 135.116 163.058 137.576 166.608 132.986 C 170.168 128.396 153.708 124.816 151.448 109.406 C 146.518 113.646 144.448 120.516 147.238 128.306 C 150.028 136.096 144.478 148.936 139.088 150.566 C 133.698 152.186 118.568 161.306 118.568 161.306 C 118.568 161.306 114.588 152.376 105.608 150.566 C 96.628 148.756 76.808 166.566 76.808 166.566 C 69.368 166.816 44.888 168.956 35.548 174.226 C 26.218 179.496 21.128 186.716 19.778 199.256 C 19.438 202.396 20.138 205.576 21.448 208.616 C 25.398 217.736 34.928 225.536 38.888 226.796 C 43.838 228.376 48.758 232.806 51.318 238.686 C 51.488 239.076 51.648 239.476 51.798 239.876 C 54.178 246.346 57.848 259.856 57.848 275.866 C 57.848 276.666 57.698 279.856 57.638 280.626 C 56.448 294.496 50.538 305.516 50.538 305.516 C 50.538 305.516 36.248 310.326 30.968 315.126 C 25.688 319.926 18.188 339.736 18.188 339.736 C 18.188 339.736 3.608 356.886 1.688 371.756 C -0.232 386.646 9.888 418.796 9.888 418.796 C 9.888 418.796 6.968 452.836 9.888 462.206 C 12.818 471.606 23.528 491.996 48.728 487.016 C 69.338 482.946 67.348 465.416 68.668 454.316 C 70.708 447.176 74.518 439.206 80.258 430.456 C 84.218 424.416 87.998 419.296 94.668 415.206 C 96.918 415.876 100.718 419.296 104.148 423.446 C 114.728 439.446 127.088 475.456 123.748 496.776 C 119.598 523.306 123.748 541.316 123.748 541.316 C 126.188 553.046 119.648 594.236 112.198 622.316 C 104.738 650.396 99.828 668.776 90.128 687.836 C 80.428 706.896 69.968 740.396 74.648 751.196 C 78.378 759.806 74.008 742.026 78.278 729.976 C 82.548 717.926 97.118 703.816 102.638 696.016 C 108.158 688.216 104.108 686.156 105.278 677.056 C 106.448 667.956 108.288 655.476 113.198 647.536 C 118.048 639.696 133.238 620.776 135.158 589.576 C 135.998 575.886 137.338 558.476 139.598 543.856 C 140.698 536.736 143.958 528.436 149.558 524.776 C 158.918 518.656 161.198 515.056 161.198 503.056 C 161.198 491.056 135.128 483.676 137.198 470.416 C 140.018 452.406 132.318 410.666 140.078 395.056 C 147.838 379.446 183.688 353.556 176.558 344.276 C 172.698 339.226 151.118 351.526 127.238 360.256 C 107.158 367.596 87.348 357.146 83.108 352.696 C 68.948 337.836 67.118 310.576 75.758 302.416 C 84.398 294.256 99.208 285.986 93.398 274.936 C 87.588 263.886 66.158 244.816 68.298 239.056 C 70.448 233.296 83.438 236.976 73.838 222.256 C 64.238 207.536 103.118 184.336 119.438 190.576 C 135.758 196.816 127.838 178.046 135.158 170.416 C 142.478 162.776 156.878 165.616 160.238 159.856 C 163.598 154.096 167.108 143.646 173.828 143.646 C 180.538 143.646 165.978 139.526 162.628 142.316 Z M 82.398 405.436 C 82.398 405.436 82.398 405.436 82.398 405.436 C 82.638 405.686 82.868 405.936 83.108 406.186 C 82.728 405.936 82.478 405.686 82.398 405.436 Z M 43.778 393.166 C 44.198 393.066 44.618 392.976 45.048 392.886 C 45.098 392.206 64.958 390.016 71.978 397.426 C 72.108 401.386 67.388 404.536 63.518 407.236 C 57.138 410.026 47.568 413.416 44.238 414.646 C 41.388 415.796 38.668 417.106 36.218 418.806 C 24.608 426.846 20.888 438.106 22.198 449.666 C 23.518 461.226 35.808 473.376 44.318 473.046 C 52.838 472.706 59.678 462.216 56.408 471.126 C 53.138 480.036 39.128 480.726 29.438 474.206 C 19.748 467.686 14.008 456.406 15.128 434.646 C 16.448 408.906 30.858 396.196 43.778 393.166 Z M 59.048 188.156 C 56.268 193.616 54.008 203.156 51.798 206.876 C 49.858 210.146 43.668 212.956 39.218 211.416 C 34.768 209.886 26.888 199.436 33.608 186.476 C 40.328 173.516 60.768 174.476 66.538 174.216 C 72.278 173.956 61.828 182.696 59.048 188.156 Z"></path>
	</g>
</svg>