<svg xmlns="http://www.w3.org/2000/svg" version="1.1" xmlns:xlink="http://www.w3.org/1999/xlink" width="305" height="450" viewBox="0 0 305 450" fill="none">
	<path fill="#039be5" d="M 304.989 298.512 C 304.989 382.603 236.809 450.782 152.719 450.782 C 67.491 450.782 0.442 382.602 0.442 298.512 C 0.442 288.281 2.717 275.783 7.26 262.147 C 7.26 262.147 6.122 262.147 7.26 261.009 C 35.668 164.42 152.718 0.782 152.718 0.782 C 152.718 0.782 269.761 164.42 298.171 261.009 C 302.721 275.782 304.989 288.281 304.989 298.512 Z"></path>
	<path fill="#4fc3f7" d="M 298.171 261.009 C 281.129 325.784 222.036 372.371 152.718 372.371 C 82.263 372.371 24.307 325.783 7.259 262.146 C 7.259 262.146 6.121 262.146 7.259 261.008 C 35.668 164.42 152.718 0.782 152.718 0.782 C 152.718 0.782 269.762 164.42 298.171 261.009 Z" opacity="1"></path>
	<path fill="#0277bd" d="M 304.989 298.512 C 304.989 382.603 236.809 450.782 152.719 450.782 C 101.581 450.782 58.398 426.922 31.126 389.42 C 56.123 408.737 87.945 420.104 122.034 420.104 C 206.125 420.104 274.312 351.918 274.312 267.827 C 274.312 257.596 272.037 245.098 267.494 230.324 C 247.032 162.145 182.265 59.868 148.168 6.462 C 151.581 3.049 152.718 0.782 152.718 0.782 C 152.718 0.782 269.761 164.42 298.171 261.009 C 302.721 275.782 304.989 288.281 304.989 298.512 Z" opacity="1"></path>
</svg>