<svg xmlns="http://www.w3.org/2000/svg" version="1.1" xmlns:xlink="http://www.w3.org/1999/xlink" width="512" height="512" x="0" y="0" viewBox="0 0 512 512" style="enable-background:new 0 0 512 512" xml:space="preserve" class=""><g transform="matrix(1.0999999999999994,0,0,1.0999999999999994,-25.599999999999852,-25.599999999999852)"><path fill="#02c26a" d="M224 184h224v96H224z" opacity="1" data-original="#02c26a" class=""></path><path fill="#00b55b" d="M256 280h232v96H256z" opacity="1" data-original="#00b55b"></path><path fill="#02c26a" d="M264 376h208v96H264z" opacity="1" data-original="#02c26a" class=""></path><path fill="#f07f2f" d="M280 472H24v-20.686A27.314 27.314 0 0 1 32 432a27.314 27.314 0 0 0 8-19.314V296a72 72 0 0 1 72-72h80a72 72 0 0 1 72 72v128l8 8a27.314 27.314 0 0 1 8 19.314z" opacity="1" data-original="#f07f2f" class=""></path><path fill="#d45d13" d="m184 224 7.087-17.717A124.622 124.622 0 0 0 200 160h-96a124.622 124.622 0 0 0 8.913 46.283L120 224zM155.544 344h-16a12 12 0 0 1 0-24h32v-16h-16v-16h-16v16a28 28 0 0 0 0 56h16a12 12 0 0 1 0 24h-40v16h24v12.749h16V400a28 28 0 0 0 0-56z" opacity="1" data-original="#d45d13" class=""></path><g fill="#00a64f"><path d="M392 400h80v16h-80zM392 432h80v16h-80zM304 400h24v16h-24zM304 432h24v16h-24z" fill="#00a64f" opacity="1" data-original="#00a64f" class=""></path></g><path fill="#f6bb00" d="M328 376h64v96h-64z" opacity="1" data-original="#f6bb00" class=""></path><path fill="#00a64f" d="M376 88a32 32 0 0 0 32-32V40h64v16a32 32 0 0 1-32 32z" opacity="1" data-original="#00a64f" class=""></path><path fill="#009644" d="M408 304h80v16h-80zM408 336h80v16h-80zM304 304h40v16h-40zM304 336h40v16h-40z" opacity="1" data-original="#009644" class=""></path><path fill="#eda600" d="M344 280h64v96h-64z" opacity="1" data-original="#eda600"></path><path fill="#00a64f" d="M368 208h80v16h-80zM368 240h80v16h-80zM248 208h56v16h-56zM272 240h32v16h-32z" opacity="1" data-original="#00a64f" class=""></path><path fill="#f6bb00" d="M304 184h64v96h-64z" opacity="1" data-original="#f6bb00" class=""></path><path fill="#00b55b" d="M248 88h224v96H248z" opacity="1" data-original="#00b55b"></path><path fill="#009644" d="M392 112h80v16h-80zM392 144h80v16h-80zM272 112h56v16h-56zM272 144h56v16h-56z" opacity="1" data-original="#009644" class=""></path><path fill="#eda600" d="M328 88h64v96h-64z" opacity="1" data-original="#eda600"></path></g></svg>