<svg width="900" height="900" viewBox="0 0 900 900" fill="none" xmlns="http://www.w3.org/2000/svg">
<circle cx="450" cy="450" r="46" fill="#002F86" stroke="#00A1CE" stroke-width="8"/>
<circle cx="875" cy="449" r="23" fill="#005D14" stroke="#00B81C" stroke-width="4"/>
<circle cx="25" cy="450" r="23" fill="#005D14" stroke="#00B81C" stroke-width="4"/>
<circle cx="450" cy="25" r="23" fill="#005D14" stroke="#00B81C" stroke-width="4"/>
<circle cx="450" cy="875" r="23" fill="#005D14" stroke="#00B81C" stroke-width="4"/>
<line x1="500" y1="450" x2="850" y2="450" stroke="#0015FF" stroke-width="6"/>
<line x1="50" y1="450" x2="400" y2="450" stroke="#0015FF" stroke-width="6"/>
<line x1="450" y1="500" x2="450" y2="850" stroke="#0015FF" stroke-width="6"/>
<line x1="450" y1="50" x2="450" y2="400" stroke="#0015FF" stroke-width="6"/>
<circle cx="749.813" cy="148.773" r="23" transform="rotate(-45 749.813 148.773)" fill="#005D14" stroke="#00B81C" stroke-width="4"/>
<circle cx="149.48" cy="750.52" r="23" transform="rotate(-45 149.48 750.52)" fill="#005D14" stroke="#00B81C" stroke-width="4"/>
<circle cx="149.48" cy="149.48" r="23" transform="rotate(-45 149.48 149.48)" fill="#005D14" stroke="#00B81C" stroke-width="4"/>
<circle cx="750.52" cy="750.52" r="23" transform="rotate(-45 750.52 750.52)" fill="#005D14" stroke="#00B81C" stroke-width="4"/>
<line x1="485.355" y1="414.645" x2="732.843" y2="167.157" stroke="#0015FF" stroke-width="6"/>
<line x1="167.157" y1="732.843" x2="414.645" y2="485.355" stroke="#0015FF" stroke-width="6"/>
<line x1="485.355" y1="485.355" x2="732.843" y2="732.843" stroke="#0015FF" stroke-width="6"/>
<line x1="167.157" y1="167.157" x2="414.645" y2="414.645" stroke="#0015FF" stroke-width="6"/>
<circle cx="860.083" cy="338.989" r="23" transform="rotate(-15 860.083 338.989)" fill="#005D14" stroke="#00B81C" stroke-width="4"/>
<circle cx="39.3047" cy="559.951" r="23" transform="rotate(-15 39.3047 559.951)" fill="#005D14" stroke="#00B81C" stroke-width="4"/>
<circle cx="339.825" cy="39.4342" r="23" transform="rotate(-15 339.825 39.4342)" fill="#005D14" stroke="#00B81C" stroke-width="4"/>
<circle cx="559.821" cy="860.471" r="23" transform="rotate(-15 559.821 860.471)" fill="#005D14" stroke="#00B81C" stroke-width="4"/>
<line x1="498.12" y1="437.012" x2="836.194" y2="346.425" stroke="#0015FF" stroke-width="6"/>
<line x1="63.4528" y1="553.48" x2="401.527" y2="462.894" stroke="#0015FF" stroke-width="6"/>
<line x1="462.764" y1="498.249" x2="553.351" y2="836.323" stroke="#0015FF" stroke-width="6"/>
<line x1="346.296" y1="63.5823" x2="436.882" y2="401.656" stroke="#0015FF" stroke-width="6"/>
<circle cx="817.38" cy="236.553" r="23" transform="rotate(-30 817.38 236.553)" fill="#005D14" stroke="#00B81C" stroke-width="4"/>
<circle cx="81.7578" cy="662.419" r="23" transform="rotate(-30 81.7578 662.419)" fill="#005D14" stroke="#00B81C" stroke-width="4"/>
<circle cx="237.319" cy="81.8583" r="23" transform="rotate(-30 237.319 81.8583)" fill="#005D14" stroke="#00B81C" stroke-width="4"/>
<circle cx="662.319" cy="817.98" r="23" transform="rotate(-30 662.319 817.98)" fill="#005D14" stroke="#00B81C" stroke-width="4"/>
<line x1="493.12" y1="424.919" x2="796.229" y2="249.919" stroke="#0015FF" stroke-width="6"/>
<line x1="103.408" y1="649.919" x2="406.517" y2="474.919" stroke="#0015FF" stroke-width="6"/>
<line x1="474.819" y1="493.22" x2="649.819" y2="796.329" stroke="#0015FF" stroke-width="6"/>
<line x1="249.819" y1="103.509" x2="424.819" y2="406.618" stroke="#0015FF" stroke-width="6"/>
<circle cx="661.419" cy="81.2333" r="23" transform="rotate(-60 661.419 81.2333)" fill="#005D14" stroke="#00B81C" stroke-width="4"/>
<circle cx="237.285" cy="817.855" r="23" transform="rotate(-60 237.285 817.855)" fill="#005D14" stroke="#00B81C" stroke-width="4"/>
<circle cx="81.7246" cy="237.294" r="23" transform="rotate(-60 81.7246 237.294)" fill="#005D14" stroke="#00B81C" stroke-width="4"/>
<circle cx="817.846" cy="662.294" r="23" transform="rotate(-60 817.846 662.294)" fill="#005D14" stroke="#00B81C" stroke-width="4"/>
<line x1="474.785" y1="406.493" x2="649.785" y2="103.384" stroke="#0015FF" stroke-width="6"/>
<line x1="249.785" y1="796.204" x2="424.785" y2="493.095" stroke="#0015FF" stroke-width="6"/>
<line x1="493.087" y1="474.794" x2="796.195" y2="649.794" stroke="#0015FF" stroke-width="6"/>
<line x1="103.375" y1="249.794" x2="406.484" y2="424.794" stroke="#0015FF" stroke-width="6"/>
<circle cx="558.882" cy="39.0083" r="23" transform="rotate(-75 558.882 39.0083)" fill="#005D14" stroke="#00B81C" stroke-width="4"/>
<circle cx="339.852" cy="860.304" r="23" transform="rotate(-75 339.852 860.304)" fill="#005D14" stroke="#00B81C" stroke-width="4"/>
<circle cx="39.3315" cy="339.787" r="23" transform="rotate(-75 39.3315 339.787)" fill="#005D14" stroke="#00B81C" stroke-width="4"/>
<circle cx="860.368" cy="559.784" r="23" transform="rotate(-75 860.368 559.784)" fill="#005D14" stroke="#00B81C" stroke-width="4"/>
<line x1="462.791" y1="401.489" x2="553.378" y2="63.4152" stroke="#0015FF" stroke-width="6"/>
<line x1="346.322" y1="836.156" x2="436.909" y2="498.082" stroke="#0015FF" stroke-width="6"/>
<line x1="498.146" y1="462.727" x2="836.22" y2="553.313" stroke="#0015FF" stroke-width="6"/>
<line x1="63.4796" y1="346.258" x2="401.554" y2="436.845" stroke="#0015FF" stroke-width="6"/>
</svg>
