<svg width="822" height="867" viewBox="0 0 822 867" fill="none" xmlns="http://www.w3.org/2000/svg">
<line x1="534.75" y1="781.01" x2="773.75" y2="761.01" stroke="#0015FF" stroke-width="6"/>
<line x1="271.3" y1="837.083" x2="467.3" y2="790.083" stroke="#0015FF" stroke-width="6"/>
<line x1="442.939" y1="511.4" x2="492.939" y2="756.4" stroke="#0015FF" stroke-width="6"/>
<line x1="455.977" y1="488" x2="588.977" y2="487" stroke="#0015FF" stroke-width="6"/>
<line x1="340.973" y1="235.74" x2="607.973" y2="468.74" stroke="#0015FF" stroke-width="6"/>
<line x1="203.026" y1="278" x2="437.026" y2="280" stroke="#0015FF" stroke-width="6"/>
<line x1="493.36" y1="265.488" x2="614.36" y2="186.488" stroke="#0015FF" stroke-width="6"/>
<line x1="352.634" y1="214.022" x2="612.634" y2="182.022" stroke="#0015FF" stroke-width="6"/>
<line x1="80.6347" y1="157.068" x2="311.635" y2="207.068" stroke="#0015FF" stroke-width="6"/>
<line x1="272.775" y1="46.1402" x2="189.775" y2="248.14" stroke="#0015FF" stroke-width="6"/>
<line x1="198.261" y1="290.278" x2="593.261" y2="473.278" stroke="#0015FF" stroke-width="6"/>
<line x1="327.465" y1="549.422" x2="416.465" y2="496.422" stroke="#0015FF" stroke-width="6"/>
<line x1="234.581" y1="440.471" x2="295.581" y2="543.471" stroke="#0015FF" stroke-width="6"/>
<line x1="204.938" y1="439.29" x2="41.9385" y2="577.29" stroke="#0015FF" stroke-width="6"/>
<line x1="46.9592" y1="453.493" x2="27.9592" y2="567.493" stroke="#0015FF" stroke-width="6"/>
<line x1="66.4048" y1="439.349" x2="283.405" y2="554.349" stroke="#0015FF" stroke-width="6"/>
<circle cx="500" cy="782" r="32.5" fill="#002F86" stroke="#00A1CE" stroke-width="5"/>
<circle cx="177" cy="277" r="32.5" fill="#002F86" stroke="#00A1CE" stroke-width="5"/>
<circle cx="465" cy="277" r="32.5" fill="#002F86" stroke="#00A1CE" stroke-width="5"/>
<circle cx="306.619" cy="562.619" r="23" fill="#005D14" stroke="#00B81C" stroke-width="4"/>
<circle cx="437" cy="487" r="23" fill="#005D14" stroke="#00B81C" stroke-width="4"/>
<circle cx="611" cy="487" r="23" fill="#005D14" stroke="#00B81C" stroke-width="4"/>
<circle cx="50" cy="431" r="23" fill="#005D14" stroke="#00B81C" stroke-width="4"/>
<circle cx="60" cy="152" r="23" fill="#005D14" stroke="#00B81C" stroke-width="4"/>
<circle cx="222" cy="420" r="23" fill="#005D14" stroke="#00B81C" stroke-width="4"/>
<circle cx="247" cy="842" r="23" fill="#005D14" stroke="#00B81C" stroke-width="4"/>
<circle cx="636" cy="177" r="23" fill="#005D14" stroke="#00B81C" stroke-width="4"/>
<circle cx="797" cy="757" r="23" fill="#005D14" stroke="#00B81C" stroke-width="4"/>
<circle cx="282" cy="25" r="23" fill="#005D14" stroke="#00B81C" stroke-width="4"/>
<circle cx="25" cy="588" r="23" fill="#005D14" stroke="#00B81C" stroke-width="4"/>
<circle cx="332" cy="217" r="23" fill="#005D14" stroke="#00B81C" stroke-width="4"/>
</svg>
