<svg xmlns="http://www.w3.org/2000/svg" version="1.1" xmlns:xlink="http://www.w3.org/1999/xlink" width="512" height="512" x="0" y="0" viewBox="0 0 512 512" style="enable-background:new 0 0 512 512" xml:space="preserve" class=""><g><path d="M255.181 38.967 29.235 170.386v210.203L256.736 512l226.03-131.419V170.378z" style="" fill="#a66206" data-original="#a66206" class=""></path><path d="M482.766 170.378v210.203L256.736 512V301.797z" style="" fill="#a66206" data-original="#a66206" class=""></path><path d="M256.736 301.797V512L29.235 380.589V170.386z" style="" fill="#d07400" data-original="#d07400" class=""></path><path d="m482.766 170.378-226.03 131.419L29.235 170.386 255.181 38.967z" style="" fill="#8fcc05" data-original="#8fcc05" class=""></path><path d="M255.265 0 29.235 131.355v52.671l227.501 131.347 226.03-131.353v-52.672z" style="" fill="#86bc06" data-original="#86bc06" class=""></path><path d="M482.766 131.348v52.672l-226.03 131.353v-52.67z" style="" fill="#86bc06" data-original="#86bc06" class=""></path><path d="M68.123 234.475c-15.218-8.787-27.583-8.801-27.607 0-.025 8.782 12.299 23.02 27.517 31.806 15.218 8.787 27.583 8.801 27.607.019.024-8.801-12.298-23.039-27.517-31.825" style="" fill="#ff9911" data-original="#ff9911" class=""></path><path d="M136.518 315.981c-10.382-5.995-18.835-5.794-18.852.462s8.405 16.199 18.788 22.193c10.399 6.004 18.835 5.794 18.852-.462.018-6.256-8.389-16.189-18.788-22.193" style="" fill="#a66206" data-original="#a66206" class=""></path><path d="M343.184 327.031c-10.382 5.995-18.789 15.928-18.771 22.184s8.453 6.446 18.836.452c10.399-6.004 18.805-15.917 18.788-22.174-.018-6.258-8.454-6.467-18.853-.462" style="" fill="#884d01" data-original="#884d01"></path><path d="M304.883 423.406a34.544 34.544 0 0 0-3.261 2.149c-9.533 7.08-16.426 18.981-15.388 26.594.917 6.75 7.726 7.892 15.882 3.184a34.021 34.021 0 0 0 3.26-2.149c9.533-7.08 16.426-18.981 15.388-26.614-.918-6.731-7.726-7.871-15.881-3.164" style="" fill="#643a00" data-original="#643a00"></path><path d="M419.332 321.598c-4.802 2.772-8.694 10.099-8.676 16.355.018 6.237 3.938 9.053 8.741 6.281 4.802-2.772 8.677-10.09 8.659-16.326-.017-6.257-3.921-9.082-8.724-6.31" style="" fill="#d07400" data-original="#d07400" class=""></path><path d="M202.301 432.903c-9.233-5.33-16.737-4.623-16.755 1.576-.018 6.217 7.459 15.574 16.691 20.906 9.233 5.33 16.721 4.613 16.738-1.605.018-6.199-7.441-15.547-16.674-20.877" style="" fill="#a66206" data-original="#a66206" class=""></path><path d="M79.363 349.02c-9.233-5.33-16.721-4.71-16.737 1.391-.018 6.101 7.443 15.371 16.675 20.701 9.233 5.33 16.737 4.7 16.754-1.4.017-6.102-7.459-15.362-16.692-20.692M218.185 324.189c-4.921-2.841-8.906-1.23-8.919 3.608-.014 4.819 3.949 11.019 8.869 13.859 4.904 2.831 8.888 1.219 8.902-3.599.014-4.836-3.949-11.036-8.852-13.868" style="" fill="#f18700" data-original="#f18700"></path><path d="M389.007 77.216c-3.567-12.283-7.411-24.714-7.411-24.714l-6.621 9.269-3.973-31.339-12.8 24.278-5.297-16.773-3.215 16.582L255.265 0 29.235 131.355l227.501 131.348 226.03-131.355-93.759-54.132z" style="" fill="#9cdd03" data-original="#9cdd03" class=""></path><path d="M111.044 178.587c-2.006-17.992-5.371-43.323-5.371-43.323l-9.518 23.318-3.601-9.788-7.345 7.345-5.99-20.875-7.255 20.76-42.731-24.67v52.672l227.502 131.348v-52.672l-145.691-84.115z" style="" fill="#8fcc05" data-original="#8fcc05" class=""></path></g></svg>