<svg xmlns="http://www.w3.org/2000/svg" version="1.1" xmlns:xlink="http://www.w3.org/1999/xlink" width="512" height="512" x="0" y="0" viewBox="0 0 64 64" style="enable-background:new 0 0 512 512" xml:space="preserve" class=""><g><path fill="#7b8350" d="m24 35.003-3 5h-3l-4-3zM16 43l1 3H5.6a14.233 14.233 0 0 1 3.59-6H11l1 2z" opacity="1" data-original="#7b8350"></path><path fill="#8ea06b" d="M14 50.003v5H3v-5h2z" opacity="1" data-original="#8ea06b" class=""></path><path fill="#f4baa6" d="M5 55.003h9v9H5z" opacity="1" data-original="#f4baa6" class=""></path><path fill="#9fad8a" d="m24 42 1.84 4.289L23 47l-1 4-4 1v12h-4V50H5a13.833 13.833 0 0 1 .6-4H17l-1-3-4-1-1-2H9.19A12.416 12.416 0 0 1 14 37l4 3h3z" opacity="1" data-original="#9fad8a" class=""></path><path fill="#8ea06b" d="M23 58h6.3a8.953 8.953 0 0 0-2.3 6h-9v-6z" opacity="1" data-original="#8ea06b" class=""></path><path fill="#9fad8a" d="M32 53v2.94A8.8 8.8 0 0 0 29.3 58H23l2-4z" opacity="1" data-original="#9fad8a" class=""></path><path fill="#cccccc" d="M40 55.003v9h-7l3-9z" opacity="1" data-original="#cccccc" class=""></path><path fill="#b3b3b3" d="M32 55.943A8.925 8.925 0 0 1 36 55l-3 9h-6a8.953 8.953 0 0 1 2.3-6 8.8 8.8 0 0 1 2.7-2.057z" opacity="1" data-original="#b3b3b3"></path><path fill="#e6e6e6" d="M40 55.003h9v9h-9z" opacity="1" data-original="#e6e6e6" class=""></path><path fill="#cccccc" d="m53 55.003 2 9h-6v-9z" opacity="1" data-original="#cccccc" class=""></path><path fill="#b3b3b3" d="M59 55.003v9h-4l-2-9z" opacity="1" data-original="#b3b3b3"></path><path fill="#9fad8a" d="M61 50.003v5H49v-5h10z" opacity="1" data-original="#9fad8a" class=""></path><path fill="#6d7042" d="M59 50h-6l2-4h3.4a13.833 13.833 0 0 1 .6 4z" opacity="1" data-original="#6d7042" class=""></path><path fill="#8ea06b" d="M58.4 46H55l-2 4h-4v5l-2.86-12H51l2.88-3.84A14.115 14.115 0 0 1 58.4 46z" opacity="1" data-original="#8ea06b" class=""></path><path fill="#6d7042" d="M53.88 39.163 51 43h-4.86l-1.69-7.111L50 37a12.3 12.3 0 0 1 3.88 2.163z" opacity="1" data-original="#6d7042" class=""></path><path fill="#cccccc" d="m46.14 43.003 2.86 12h-9v-20l4.45.889z" opacity="1" data-original="#cccccc" class=""></path><path fill="#8ea06b" d="M32 53v-8l5 4 3-7v13h-4a8.925 8.925 0 0 0-4 .94z" opacity="1" data-original="#8ea06b" class=""></path><path fill="#7b8350" d="M32 45.003v8l-7 1-2 4h-5v-6l4-1 1-4 2.84-.711L27 49.003z" opacity="1" data-original="#7b8350"></path><path fill="#8ea06b" d="M25.84 46.292 24 42.003l-3-2 3-5 8 10-5 4z" opacity="1" data-original="#8ea06b" class=""></path><path fill="#9fad8a" d="M40 35.003v7l-3 7-5-4z" opacity="1" data-original="#9fad8a" class=""></path><path fill="#e09b8d" d="M39.27 30.253 40 35l-8 10-8-10 .73-4.75a10.985 10.985 0 0 0 14.54 0zM45 20.882A5.375 5.375 0 0 1 43 22V12a4 4 0 0 1 4 4 6.168 6.168 0 0 1-2 4.882z" opacity="1" data-original="#e09b8d" class=""></path><path fill="#b3b3b3" d="M43 12v2l-12.05-3.83 11.07-2.708A10.916 10.916 0 0 1 43 12z" opacity="1" data-original="#b3b3b3"></path><path fill="#e6e6e6" d="M38.17 2.892A9.091 9.091 0 0 1 32 5a9.091 9.091 0 0 1-6.17-2.111 11.021 11.021 0 0 1 12.34 0z" opacity="1" data-original="#e6e6e6" class=""></path><path fill="#cccccc" d="m42.02 7.462-11.07 2.711-8.91-2.84a11.03 11.03 0 0 1 3.79-4.441A9.091 9.091 0 0 0 32 5a9.091 9.091 0 0 0 6.17-2.111 10.985 10.985 0 0 1 3.85 4.57z" opacity="1" data-original="#cccccc" class=""></path><path fill="#e6e6e6" d="M43 14v5l-22-7a10.9 10.9 0 0 1 1.04-4.67l8.91 2.84z" opacity="1" data-original="#e6e6e6" class=""></path><path fill="#f4baa6" d="M39.27 30.253a10.985 10.985 0 0 1-14.54 0A11.522 11.522 0 0 1 21 22V12l22 7v3a10.942 10.942 0 0 1-3.73 8.253z" opacity="1" data-original="#f4baa6" class=""></path><path fill="#e09b8d" d="M21 12v10a5.375 5.375 0 0 1-2-1.121A6.168 6.168 0 0 1 17 16a4 4 0 0 1 4-4z" opacity="1" data-original="#e09b8d" class=""></path><path fill="#d1897d" d="M32 24a1 1 0 0 0 1-1v-4a1 1 0 0 0-2 0v4a1 1 0 0 0 1 1zM34 26h-4a1 1 0 0 0 0 2h4a1 1 0 0 0 0-2z" opacity="1" data-original="#d1897d" class=""></path><circle cx="27.5" cy="18.503" r="1.5" fill="#995e55" opacity="1" data-original="#995e55"></circle></g></svg>