<svg width="1005" height="867" viewBox="0 0 1005 867" fill="none" xmlns="http://www.w3.org/2000/svg">
<path d="M50.5624 742.416C49.2845 745.061 48.6989 747.988 48.8606 750.921C49.0223 753.854 49.9259 756.699 51.4869 759.187C53.0478 761.676 55.2149 763.728 57.7852 765.151C60.3556 766.574 63.245 767.32 66.1828 767.322H241.217C244.852 767.307 248.39 766.151 251.332 764.018C254.275 761.885 256.474 758.882 257.619 755.433C262.542 740.185 270.186 725.955 280.181 713.432C284.604 708.113 290.106 703.794 296.322 700.762C296.496 700.675 296.583 700.588 296.756 700.501C321.468 709.45 346.641 717.068 372.168 723.324C378.155 724.601 384.403 723.506 389.599 720.269C394.795 717.032 398.532 711.905 400.024 705.969C407.4 684.621 397.16 678.807 400.458 666.05C402.714 657.198 411.045 655.029 417.64 650.343C422.934 646.611 413.388 634.375 413.388 634.375C413.388 634.375 423.541 626.826 427.186 623.528C431.004 620.317 425.711 614.937 420.851 604.783C418.868 600.408 418.321 595.517 419.289 590.812C421.025 581.44 435.083 577.969 442.025 572.762C456.518 562.001 457.299 559.398 419.463 518.524C411.539 509.313 406.526 497.957 405.057 485.895C404.363 481.817 400.198 477.391 400.284 472.445C400.458 460.035 418.421 454.915 420.07 442.853C421.372 433.48 409.31 416.385 405.404 399.636C403.268 389.384 400.515 379.271 397.16 369.35C389.956 349.373 378.766 331.068 364.271 315.547C343.01 292.984 313.505 283.265 283.653 276.322C174.484 251.156 119.726 264.954 57.5048 313.898C34.0388 331.366 16.9152 356.016 8.73465 384.103C2.46982 407.289 -0.452301 431.25 0.0566711 455.262C0.924469 518.958 41.4506 541.261 59.5007 582.481C70.543 607.886 74.6744 635.758 71.4763 663.273C69.0754 690.561 62.0318 717.239 50.6492 742.156L50.5624 742.416Z" fill="#FDD7AD"/>
<path d="M217.44 660.67C216.919 682.451 235.49 699.287 272.632 710.828C274.194 711.349 276.797 712.217 280.181 713.432C284.604 708.113 290.106 703.794 296.322 700.762C294.153 699.981 292.157 699.287 290.248 698.592C284.52 696.596 280.181 695.034 277.925 694.34C249.808 685.575 234.535 673.773 234.796 661.017C234.842 658.715 233.971 656.49 232.377 654.83C230.782 653.17 228.593 652.211 226.291 652.165C223.99 652.119 221.764 652.989 220.104 654.584C218.444 656.179 217.486 658.368 217.44 660.67Z" fill="#F9C795"/>
<path d="M478.74 23.21C477.83 23.1123 476.918 23.0456 476.004 23.01C475.53 22.9915 475.067 22.8646 474.651 22.639C474.234 22.4135 473.874 22.0953 473.6 21.709C472.707 20.4489 471.756 19.2312 470.75 18.06C461.29 7.01005 447.21 4.6256e-05 431.49 4.6256e-05C424.156 -0.00978167 416.905 1.54659 410.222 4.56505C409.789 4.76035 409.318 4.85295 408.844 4.8356C408.37 4.81825 407.906 4.69142 407.489 4.46505C405.034 3.14968 402.442 2.10841 399.76 1.36005C396.55 0.480046 393.16 4.6256e-05 389.66 4.6256e-05C372.855 4.6256e-05 358.617 10.965 353.752 26.127C353.563 26.7254 353.189 27.2483 352.683 27.6203C352.178 27.9923 351.567 28.1942 350.94 28.197C329.725 28.188 310.604 42.781 305.8 64.27C303.334 75.235 305.02 86.158 309.81 95.436C310.511 96.793 310.148 98.482 308.886 99.342C302.918 103.411 298.408 109.66 296.72 117.26C294.299 128.045 298.143 138.777 305.863 145.663C306.647 146.362 306.967 147.428 306.781 148.462C305.643 154.738 305.93 161.19 307.62 167.34C327.585 193.24 367.72 199.933 390.44 199.933C455.45 199.933 496.513 166.34 496.513 101.33C496.513 85.75 496.513 43.78 478.74 23.21Z" fill="#EAF6FF"/>
<path d="M518.726 120.395C518.419 120.84 518.24 121.361 518.211 121.901C518.181 122.441 518.301 122.979 518.557 123.455C522.123 129.984 524.14 137.471 524.14 145.42C524.14 162.936 514.348 178.159 499.933 185.968C499.543 186.179 498.867 186.516 498.23 186.828C497.304 187.281 496.658 188.174 496.567 189.201C496.336 191.805 495.855 194.38 495.13 196.891C495.12 196.901 495.12 196.911 495.12 196.921C490.24 213.661 474.74 225.901 456.38 225.901C450.17 225.907 444.043 224.48 438.475 221.732C437.928 221.463 437.311 221.37 436.709 221.465C436.106 221.561 435.548 221.84 435.111 222.264C426.023 231.05 413.871 235.952 401.231 235.931C379.139 235.931 360.464 221.256 354.531 201.144C354.342 200.504 353.942 199.946 353.397 199.561C352.852 199.176 352.193 198.985 351.527 199.02C347.618 199.22 343.7 198.887 339.881 198.031C323.711 194.431 311.701 182.231 307.621 167.341C325.611 178.511 346.84 184.951 369.559 184.951C434.665 184.952 487.694 131.549 487.258 66.4441C487.156 51.1581 484.146 36.5761 478.741 23.2111C480.851 23.4311 482.901 23.8111 484.901 24.3311C502.781 28.9911 515.991 45.2111 515.991 64.5011C515.991 69.0501 515.259 73.4151 513.902 77.5121C513.546 78.5881 513.858 79.7691 514.672 80.5581C520.508 86.2081 524.141 94.1221 524.141 102.871C524.151 109.126 522.263 115.236 518.726 120.395Z" fill="#D8ECFE"/>
<path d="M480.461 281.372C480.461 292.512 467.096 297.423 455.926 297.423C450.646 297.423 446.525 292.149 442.839 286.798C442.516 285.32 442.355 283.811 442.359 282.298C442.359 270.408 452.039 260.768 463.979 260.768C468.019 260.768 471.799 261.868 475.029 263.798C480.461 270.574 480.461 278.472 480.461 281.372Z" fill="#EAF6FF"/>
<path d="M485.6 282.299C485.6 294.199 475.92 303.839 463.98 303.839C453.59 303.839 444.91 296.539 442.84 286.799C446.578 290.22 451.463 292.115 456.53 292.109C467.7 292.109 476.76 283.089 476.76 271.949C476.76 269.049 476.14 266.289 475.03 263.799C481.36 267.549 485.6 274.429 485.6 282.299Z" fill="#D8ECFE"/>
<path d="M444.92 338.27C444.92 345.94 437.257 351.08 429.557 351.08C425.487 351.08 422.219 349.016 417.95 342.029C417.86 341.349 417.81 340.659 417.81 339.949C417.81 331.299 424.85 324.289 433.52 324.289C435.99 324.289 438.33 324.859 440.41 325.869C444.92 331.13 444.92 335.81 444.92 338.27Z" fill="#EAF6FF"/>
<path d="M449.23 339.949C449.23 348.589 442.2 355.599 433.52 355.599C425.56 355.599 418.97 349.689 417.95 342.029C420.49 344.799 424.16 346.539 428.23 346.539C435.93 346.539 442.18 340.319 442.18 332.649C442.18 330.189 441.54 327.869 440.41 325.869C445.64 328.419 449.23 333.759 449.23 339.949Z" fill="#D8ECFE"/>
<path d="M436.012 86.912C438.657 90.496 439.98 94.336 439.98 98.432C439.98 101.333 439.34 103.936 438.06 106.24C436.78 108.544 434.775 111.147 432.044 114.048C429.655 116.523 427.905 118.869 426.796 121.088C425.687 123.221 424.961 125.227 424.62 127.104C424.364 128.896 424.065 131.755 423.724 135.68C423.724 137.643 423.041 139.093 421.676 140.032C420.311 140.885 418.903 141.312 417.452 141.312C413.612 141.312 411.692 139.008 411.692 134.4C411.692 131.925 412.119 128.981 412.972 125.568C413.825 122.155 415.404 118.443 417.708 114.432C418.476 113.067 419.457 111.701 420.652 110.336C421.932 108.971 422.743 108.075 423.084 107.648C424.449 106.197 425.601 104.704 426.54 103.168C427.479 101.547 427.948 100.139 427.948 98.944C427.948 97.5787 427.735 96.512 427.308 95.744C426.967 94.976 426.412 94.1227 425.644 93.184C424.535 91.904 423.084 90.88 421.292 90.112C419.5 89.344 417.836 88.96 416.3 88.96C413.825 88.96 411.521 89.4293 409.388 90.368C407.34 91.2213 405.676 92.3733 404.396 93.824C403.201 95.1893 402.604 96.5973 402.604 98.048C402.604 100.437 403.073 102.229 404.012 103.424C404.951 104.533 405.42 105.557 405.42 106.496C405.42 107.008 405.292 107.605 405.036 108.288C404.012 110.677 402.263 111.872 399.788 111.872C396.631 111.872 394.327 110.677 392.876 108.288C391.425 105.899 390.7 102.869 390.7 99.2C390.7 95.7013 391.809 92.3733 394.028 89.216C396.247 85.9733 399.489 83.328 403.756 81.28C408.023 79.232 413.1 78.208 418.988 78.208C422.401 78.208 425.601 78.976 428.588 80.512C431.575 81.9627 434.049 84.096 436.012 86.912ZM417.452 146.176C420.012 146.176 422.06 147.072 423.596 148.864C424.876 150.144 425.516 151.893 425.516 154.112C425.516 155.989 424.62 157.568 422.828 158.848C421.036 160.043 419.073 160.64 416.94 160.64C415.404 160.64 413.911 160.213 412.46 159.36C410.668 158.08 409.772 155.819 409.772 152.576C409.772 150.869 410.54 149.376 412.076 148.096C413.697 146.816 415.489 146.176 417.452 146.176Z" fill="#30343D"/>
<path d="M775.406 711.751L708.113 675.117C704.545 673.182 702.466 669.32 702.795 665.273C702.958 663.293 703.693 661.403 704.91 659.833C706.127 658.263 707.774 657.08 709.651 656.428L725.893 650.781C721.053 643.193 713.923 633.671 704.052 624.347C688.261 609.437 650.91 582.161 617.886 572.448C606.687 569.438 609.287 552.023 620.811 552.357L724.027 552.699C726.173 552.705 728.258 553.382 729.995 554.64C738.984 561.127 747.488 568.291 755.267 575.92C774.709 594.972 786.924 614.086 794.362 628.749L813.414 622.72C817.365 621.469 821.678 622.72 824.351 625.885C827.017 629.05 827.523 633.507 825.622 637.191L789.419 707.445C788.794 708.659 787.933 709.736 786.886 710.613C785.839 711.49 784.627 712.149 783.322 712.551C780.683 713.357 777.826 713.07 775.406 711.751Z" fill="#66FF66"/>
<path d="M898.999 538L753.944 565.889L608.889 538L658.532 502.794H822.437V486.046C822.437 481.972 824.85 478.281 828.589 476.647C830.418 475.85 832.44 475.603 834.407 475.937C836.373 476.27 838.2 477.171 839.663 478.527L895.718 530.481C896.753 531.441 897.579 532.604 898.143 533.898C898.708 535.192 898.999 536.588 898.999 538Z" fill="#E62E2E"/>
<path d="M828.589 599.353C824.85 597.719 822.437 594.028 822.437 589.954V573.206L559.561 572.987L608.889 538H898.999C898.999 539.412 898.708 540.808 898.143 542.102C897.579 543.396 896.753 544.56 895.718 545.52L839.663 597.473C838.2 598.829 836.373 599.73 834.407 600.064C832.44 600.397 830.418 600.151 828.589 599.353Z" fill="#E62E2E"/>
<path d="M703.376 538L582.445 556.638L549 538V513.049C549 507.389 553.594 502.795 559.254 502.795C566.069 502.795 572.29 502.515 578.271 501.927C603.257 499.5 626.547 494.223 647.499 486.245C669.634 477.83 688.658 466.189 704.052 451.648C713.923 442.324 721.053 432.808 725.893 425.22L709.651 419.574C707.774 418.922 706.127 417.739 704.91 416.168C703.693 414.598 702.958 412.708 702.795 410.728C702.466 406.688 704.545 402.819 708.113 400.884L775.406 364.249C776.606 363.596 777.924 363.189 779.283 363.052C780.642 362.915 782.015 363.05 783.322 363.449C784.627 363.852 785.839 364.511 786.886 365.387C787.933 366.264 788.794 367.342 789.419 368.556L825.622 438.809C826.551 440.609 826.926 442.643 826.699 444.655C826.473 446.668 825.656 448.568 824.351 450.116C823.044 451.664 821.308 452.791 819.361 453.355C817.415 453.918 815.345 453.892 813.414 453.281L794.362 447.252C786.924 461.915 774.709 481.028 755.267 500.08C747.488 507.709 738.984 514.873 729.995 521.361C721.634 527.411 712.741 532.969 703.376 538Z" fill="#FFC34D"/>
<path d="M559.561 572.986C556.793 573.075 554.106 572.029 552.117 570.101C551.131 569.146 550.346 568.002 549.811 566.737C549.275 565.472 548.999 564.113 549 562.739V538H703.376C694.359 542.854 684.912 547.229 675.089 551.077C641.285 564.318 602.423 571.688 559.561 572.986Z" fill="#FFC34D"/>
<path d="M792.492 867C812.23 867 828.231 862.564 828.231 857.091C828.231 851.618 812.23 847.182 792.492 847.182C772.754 847.182 756.753 851.618 756.753 857.091C756.753 862.564 772.754 867 792.492 867Z" fill="white"/>
<path fill-rule="evenodd" clip-rule="evenodd" d="M747 772.492C747 747.367 767.367 727 792.492 727C817.616 727 837.983 747.367 837.983 772.492C837.983 780.914 835.569 789.16 831.025 796.251L792.492 856.401L753.958 796.251C749.415 789.159 747 780.914 747 772.492Z" fill="#18CF00"/>
<path d="M796.352 791.316C806.744 789.182 813.439 779.029 811.306 768.637C809.173 758.244 799.019 751.549 788.627 753.682C778.234 755.816 771.539 765.969 773.673 776.362C775.806 786.754 785.96 793.449 796.352 791.316Z" fill="#00771A"/>
<path d="M959.492 608C979.23 608 995.231 603.564 995.231 598.091C995.231 592.618 979.23 588.182 959.492 588.182C939.754 588.182 923.753 592.618 923.753 598.091C923.753 603.564 939.754 608 959.492 608Z" fill="white"/>
<path fill-rule="evenodd" clip-rule="evenodd" d="M914 513.492C914 488.367 934.367 468 959.492 468C984.616 468 1004.98 488.367 1004.98 513.492C1004.98 521.914 1002.57 530.16 998.025 537.251L959.492 597.401L920.958 537.251C916.415 530.159 914 521.914 914 513.492Z" fill="#F44336"/>
<path d="M963.352 532.316C973.744 530.183 980.439 520.029 978.306 509.637C976.173 499.244 966.019 492.549 955.627 494.682C945.234 496.816 938.539 506.969 940.672 517.362C942.806 527.754 952.959 534.449 963.352 532.316Z" fill="#C62828"/>
<path d="M792.492 349C812.23 349 828.231 344.564 828.231 339.091C828.231 333.618 812.23 329.182 792.492 329.182C772.754 329.182 756.753 333.618 756.753 339.091C756.753 344.564 772.754 349 792.492 349Z" fill="white"/>
<path fill-rule="evenodd" clip-rule="evenodd" d="M747 254.492C747 229.367 767.367 209 792.492 209C817.616 209 837.983 229.367 837.983 254.492C837.983 262.914 835.569 271.16 831.025 278.251L792.492 338.401L753.958 278.251C749.415 271.159 747 262.914 747 254.492Z" fill="#FFBC37"/>
<path d="M796.352 273.316C806.744 271.182 813.439 261.029 811.306 250.637C809.173 240.244 799.019 233.549 788.627 235.682C778.234 237.816 771.539 247.969 773.672 258.362C775.806 268.754 785.959 275.449 796.352 273.316Z" fill="#BF7F00"/>
</svg>
