<svg xmlns="http://www.w3.org/2000/svg" version="1.1" xmlns:xlink="http://www.w3.org/1999/xlink" width="512" height="512" x="0" y="0" viewBox="0 0 512 512" style="enable-background:new 0 0 512 512" xml:space="preserve" class=""><g transform="matrix(1.04,0,0,1.04,-10.240000000000009,-10.240000000000009)"><path fill="#6e83b7" d="M300 359h-88l-68.047 15.38C98.369 384.684 66 425.186 66 471.92V502h380v-30.08c0-46.734-32.369-87.236-77.953-97.539z" opacity="1" data-original="#6e83b7" class=""></path><path fill="#edeff1" d="M256 423c33.782 0 61.515-26.314 63.826-59.519L300 359h-88l-19.826 4.481C194.485 396.686 222.219 423 256 423z" opacity="1" data-original="#edeff1"></path><path fill="#ffd3b3" d="M212 309.188V359c0 24.301 19.699 44 44 44s44-19.699 44-44v-49.812z" opacity="1" data-original="#ffd3b3" class=""></path><path fill="#fcb98b" d="M212 331.897c13.499 5.851 28.376 9.103 44 9.103s30.501-3.251 44-9.103v-22.71h-88z" opacity="1" data-original="#fcb98b" class=""></path><path fill="#ffd3b3" d="M347 170v60c0 50.258-40.742 91-91 91s-91-40.742-91-91v-60z" opacity="1" data-original="#ffd3b3" class=""></path><path fill="#6e83b7" d="m323 170 24 60v-60zM189 170l-24 60v-60z" opacity="1" data-original="#6e83b7" class=""></path><path fill="#ffd3b3" d="M151 219h14v-49h-14c-5.523 0-10 4.477-10 10v29c0 5.523 4.477 10 10 10zM361 219h-14v-49h14c5.523 0 10 4.477 10 10v29c0 5.523-4.477 10-10 10z" opacity="1" data-original="#ffd3b3" class=""></path><path fill="#466089" d="M366.143 472h10v30h-10zM135.857 472h10v30h-10z" opacity="1" data-original="#466089" class=""></path><path fill="#ffe352" d="M149 170v-39c0-59 48-107 107-107s107 48 107 107v39z" opacity="1" data-original="#ffe352" class=""></path><path fill="#ffe352" d="M256 140.37c55.556 0 134 11.63 134 11.63v18H122v-18s78.444-11.63 134-11.63z" opacity="1" data-original="#ffe352" class=""></path><path fill="#ffb236" d="M256 24c-21.759 0-42.011 6.545-58.922 17.746l6.322 101.143h105.2l6.322-101.143C298.011 30.545 277.759 24 256 24z" opacity="1" data-original="#ffb236" class=""></path><path fill="#ffe352" d="M217.481 128.519h77.037l6.856-109.694C287.345 13.153 272.038 10 256 10s-31.345 3.153-45.374 8.825zM351 437.661v-67.134l-28-6.329V437c0 22.091-17.909 40-40 40h-54c-22.091 0-40-17.909-40-40v-72.801l-28 6.329v67.134a39.996 39.996 0 0 1-6.951 22.533L146 472v30h220v-30l-8.049-11.805A39.999 39.999 0 0 1 351 437.661z" opacity="1" data-original="#ffe352" class=""></path></g></svg>